<svg xmlns="http://www.w3.org/2000/svg" viewBox="0 0 512 512" fill="#6f42c1">
  <path d="M256 0c17.7 0 32 14.3 32 32V64c0 17.7-14.3 32-32 32s-32-14.3-32-32V32c0-17.7 14.3-32 32-32zM143.5 128c-17.7 0-32 14.3-32 32s14.3 32 32 32h225c17.7 0 32-14.3 32-32s-14.3-32-32-32h-225zM256 224c-53 0-96 43-96 96v64c0 17.7 14.3 32 32 32h128c17.7 0 32-14.3 32-32V320c0-53-43-96-96-96zm-32 96c0-17.7 14.3-32 32-32s32 14.3 32 32v32h-64V320zM96 384c-17.7 0-32 14.3-32 32v64c0 17.7 14.3 32 32 32s32-14.3 32-32V416c0-17.7-14.3-32-32-32zm320 0c-17.7 0-32 14.3-32 32v64c0 17.7 14.3 32 32 32s32-14.3 32-32V416c0-17.7-14.3-32-32-32z"/>
</svg>
